@startuml
    ' Copyright to this UML and generated images belongs to the author of the corresponding Java sources.

    ' This UML was generated by UMLDoclet (C) Copyright 2016-2025 Talsma ICT.
    ' UMLDoclet 2.2.1 is licensed under the Apache License, version 2.0
    ' and contains parts of PlantUML 1.2024.7 (ASL) Copyright 2009-2025, Arnaud Roques.

    !pragma layout smetana
    skinparam backgroundcolor transparent
    set namespaceSeparator none
    hide circle
    hide empty fields
    hide empty methods

    com.smartbay.progettofinale.Security --> com.smartbay.progettofinale.Repositories
    com.smartbay.progettofinale.Security --> com.smartbay.progettofinale.Models
    com.smartbay.progettofinale.Controllers --> com.smartbay.progettofinale.Services
    com.smartbay.progettofinale.Controllers --> com.smartbay.progettofinale.Repositories
    com.smartbay.progettofinale.Controllers --> com.smartbay.progettofinale.DTO
    com.smartbay.progettofinale.Controllers --> com.smartbay.progettofinale.Models
    com.smartbay.progettofinale.Controllers --> com.smartbay.progettofinale.Security
    com.smartbay.progettofinale.Models --> com.smartbay.progettofinale.Repositories
    com.smartbay.progettofinale.Global --> com.smartbay.progettofinale.Services
    com.smartbay.progettofinale.Global --> com.smartbay.progettofinale.Security
    com.smartbay.progettofinale.Global --> com.smartbay.progettofinale.DTO
    com.smartbay.progettofinale.Repositories --> com.smartbay.progettofinale.Models
    com.smartbay.progettofinale.DTO --> com.smartbay.progettofinale.Models
    com.smartbay.progettofinale.Services --> com.smartbay.progettofinale.Repositories
    com.smartbay.progettofinale.Services --> com.smartbay.progettofinale.Models
    com.smartbay.progettofinale.Services --> com.smartbay.progettofinale.DTO
    com.smartbay.progettofinale.Services --> com.smartbay.progettofinale.Security
    com.smartbay.progettofinale.Config --> com.smartbay.progettofinale.Services
    com.smartbay.progettofinale.Config --> com.smartbay.progettofinale.Repositories

    ' Package links
    class "com.smartbay.progettofinale.Security" [[com/smartbay/progettofinale/Security/package-summary.html]] {
    }
    class "com.smartbay.progettofinale.Repositories" [[com/smartbay/progettofinale/Repositories/package-summary.html]] {
    }
    class "com.smartbay.progettofinale.Models" [[com/smartbay/progettofinale/Models/package-summary.html]] {
    }
    class "com.smartbay.progettofinale.Controllers" [[com/smartbay/progettofinale/Controllers/package-summary.html]] {
    }
    class "com.smartbay.progettofinale.Services" [[com/smartbay/progettofinale/Services/package-summary.html]] {
    }
    class "com.smartbay.progettofinale.DTO" [[com/smartbay/progettofinale/DTO/package-summary.html]] {
    }
    class "com.smartbay.progettofinale.Global" [[com/smartbay/progettofinale/Global/package-summary.html]] {
    }
    class "com.smartbay.progettofinale.Config" [[com/smartbay/progettofinale/Config/package-summary.html]] {
    }

    <style>
        footer {
            HyperLinkColor #8
            HyperLinkUnderlineThickness 0
        }
    </style>
    footer \n[[https://github.com/talsma-ict/umldoclet UMLDoclet 2.2.1]]
    ' Generated 2025-08-29T16:57:39.770376457+02:00[Europe/Rome]
@enduml
